<svg width="40" height="40" viewBox="0 0 40 40" fill="none" xmlns="http://www.w3.org/2000/svg">
<path d="M5 40C3.67392 40 2.40215 39.4732 1.46447 38.5355C0.526784 37.5979 0 36.3261 0 35V5C0 3.67392 0.526784 2.40215 1.46447 1.46447C2.40215 0.526784 3.67392 0 5 0L35 0C36.3261 0 37.5979 0.526784 38.5355 1.46447C39.4732 2.40215 40 3.67392 40 5V35C40 36.3261 39.4732 37.5979 38.5355 38.5355C37.5979 39.4732 36.3261 40 35 40H5ZM21.25 28.75V14.2675L26.615 19.635C26.7312 19.7512 26.8692 19.8434 27.021 19.9063C27.1729 19.9692 27.3356 20.0016 27.5 20.0016C27.6644 20.0016 27.8271 19.9692 27.979 19.9063C28.1308 19.8434 28.2688 19.7512 28.385 19.635C28.5012 19.5188 28.5934 19.3808 28.6563 19.229C28.7192 19.0771 28.7516 18.9144 28.7516 18.75C28.7516 18.5856 28.7192 18.4229 28.6563 18.271C28.5934 18.1192 28.5012 17.9812 28.385 17.865L20.885 10.365C20.7689 10.2486 20.6309 10.1562 20.4791 10.0932C20.3272 10.0302 20.1644 9.99777 20 9.99777C19.8356 9.99777 19.6728 10.0302 19.5209 10.0932C19.3691 10.1562 19.2311 10.2486 19.115 10.365L11.615 17.865C11.3803 18.0997 11.2484 18.4181 11.2484 18.75C11.2484 19.0819 11.3803 19.4003 11.615 19.635C11.8497 19.8697 12.1681 20.0016 12.5 20.0016C12.8319 20.0016 13.1503 19.8697 13.385 19.635L18.75 14.2675V28.75C18.75 29.0815 18.8817 29.3995 19.1161 29.6339C19.3505 29.8683 19.6685 30 20 30C20.3315 30 20.6495 29.8683 20.8839 29.6339C21.1183 29.3995 21.25 29.0815 21.25 28.75Z" fill="#FFCE45" stroke="red" stroke-width="3"/>
</svg>
